<svg width="114" height="52" viewBox="0 0 114 52" fill="none" xmlns="http://www.w3.org/2000/svg">
<path fill-rule="evenodd" clip-rule="evenodd" d="M1 25.53C1 11.9825 11.9825 1 25.53 1H87.7288C101.276 1 112.259 11.9825 112.259 25.53C112.259 39.0775 101.276 50.06 87.7288 50.06H25.53C11.9825 50.06 1 39.0775 1 25.53Z" fill="#808080" fill-opacity="0.5" stroke="black" stroke-opacity="0.5" stroke-width="2" stroke-linecap="round"/>
<path fill-rule="evenodd" clip-rule="evenodd" d="M29.2293 21.9281L28.8891 23.2207C28.6566 24.104 28.5317 25.0349 28.5317 26C28.5317 31.9647 33.3287 36.8 39.246 36.8C45.1634 36.8 49.9603 31.9647 49.9603 26C49.9603 24.8132 49.7716 23.6772 49.4251 22.6172L49.0232 21.3873L48.3395 20.285C46.4412 17.2244 43.0769 15.2 39.246 15.2C35.2216 15.2 31.7107 17.4352 29.8764 20.7565L29.2293 21.9281ZM25.8206 22.4C25.5508 23.4252 25.3934 24.4967 25.3627 25.6C25.359 25.7329 25.3571 25.8662 25.3571 26C25.3571 33.732 31.5754 40 39.246 40C46.9167 40 53.1349 33.732 53.1349 26C53.1349 24.4688 52.8911 22.995 52.4403 21.616C52.5693 21.4767 52.7274 21.3243 52.9148 21.1675C52.9455 21.1418 52.9771 21.116 53.0094 21.09C53.1889 20.9461 53.3928 20.7998 53.621 20.658C54.528 20.0941 55.8199 19.6 57.5 19.6C59.1043 19.6 60.3633 20.0478 61.2417 20.5749C61.2445 20.5765 61.2473 20.5782 61.2501 20.5799C61.5148 20.7393 61.7413 20.9038 61.9297 21.062C61.9427 21.0729 61.9556 21.0838 61.9683 21.0947C62.0753 21.1865 62.1692 21.2759 62.2502 21.3606C62.4055 21.5229 62.4896 21.6429 62.53 21.7077C62.0983 23.0603 61.8651 24.5027 61.8651 26C61.8651 33.732 68.0833 40 75.754 40C83.4246 40 89.6429 33.732 89.6429 26C89.6429 25.8662 89.641 25.7329 89.6373 25.6C89.6066 24.4967 89.4492 23.4252 89.1794 22.4H95V19.2H87.8974C85.5254 14.9053 80.9763 12 75.754 12C71.9203 12 68.4494 13.5657 65.9362 16.0973C65.1873 16.8517 64.5234 17.692 63.9603 18.6022C63.9602 18.6023 63.9602 18.6024 63.9601 18.6024C63.6297 18.3253 63.2645 18.0653 62.8759 17.8314C62.8724 17.8293 62.8689 17.8272 62.8655 17.8251C62.5877 17.6585 62.2898 17.4999 61.9724 17.3531C60.7541 16.7894 59.2493 16.4 57.5 16.4C57.2702 16.4 57.0451 16.4067 56.8246 16.4196C55.283 16.5095 53.9614 16.9019 52.8687 17.4307C52.3291 17.6919 51.8454 17.9863 51.4184 18.294C51.2837 18.3911 51.1547 18.4895 51.0313 18.5886C51.0312 18.5885 51.0311 18.5884 51.0311 18.5882C50.4671 17.679 49.8024 16.8396 49.0527 16.0862C46.5405 13.5611 43.0741 12 39.246 12C34.0237 12 29.4746 14.9053 27.1026 19.2H20V22.4H25.8206ZM65.955 21.4254L65.552 22.6878C65.2202 23.7275 65.0397 24.8394 65.0397 26C65.0397 31.9647 69.8366 36.8 75.754 36.8C81.6713 36.8 86.4683 31.9647 86.4683 26C86.4683 25.0349 86.3434 24.104 86.1109 23.2207L85.7707 21.9281L85.1236 20.7565C83.2893 17.4352 79.7784 15.2 75.754 15.2C71.9186 15.2 68.551 17.2291 66.6539 20.2957L65.955 21.4254Z" fill="black"/>
</svg>
