<svg width="108" height="84" viewBox="0 0 108 84" fill="none" xmlns="http://www.w3.org/2000/svg">
<path fill-rule="evenodd" clip-rule="evenodd" d="M41.379 18.6365C31.5528 12.7633 23.3936 13.733 19.6358 16.5012C16.001 19.1788 13.4862 24.9619 14.0995 33.1975C14.5414 39.1308 16.6153 45.6629 20.4003 51.6674L41.379 18.6365ZM53.5141 9.82963C38.8033 -1.13629 22.5033 -3.18567 11.4063 4.98891C2.43039 11.601 -0.699082 23.1715 0.127434 34.2697C0.883848 44.4267 4.94603 55.2955 12.2562 64.4904L6.83043 73.0333C4.73375 76.3345 5.67031 80.7361 8.9223 82.8645C12.1743 84.9929 16.5102 84.0422 18.6069 80.7409L22.8163 74.1132C31.0005 79.1616 40.6693 80.8776 49.7767 80.435C62.0581 79.8381 74.4741 75.2963 83.0256 68.1556C83.2345 67.9811 83.4437 67.8038 83.653 67.6237C87.7561 72.5457 91.9014 77.365 95.8415 81.7062C98.4633 84.5949 102.896 84.7791 105.741 82.1176C108.587 79.4561 108.768 74.9567 106.146 72.068C102.05 67.5547 97.6951 62.4717 93.3843 57.2753C97.6125 51.8287 101.323 45.5925 103.733 39.2703C107.903 28.3293 109.061 14.0424 97.2575 5.05544C87.864 -2.09632 75.7268 0.079761 66.6398 3.46357C62.0187 5.18438 57.5307 7.45267 53.5141 9.82963ZM52.288 27.71L30.4178 62.1447C35.6167 65.2439 42.1233 66.5665 49.1067 66.2272C58.7773 65.7572 68.1966 62.1201 74.1242 57.1704C74.3184 57.0083 74.513 56.8427 74.7079 56.674C71.8355 53.0934 69.0849 49.6078 66.5545 46.3664C62.2825 40.8941 58.6133 36.086 56.011 32.6446C54.7095 30.9235 53.6741 29.5432 52.9627 28.5913C52.6943 28.2322 52.4721 27.9341 52.299 27.7015C52.2953 27.7043 52.2917 27.7072 52.288 27.71ZM84.2123 45.9916C81.8827 43.0732 79.6387 40.2252 77.5362 37.5319C73.3181 32.1288 69.6942 27.38 67.1258 23.9835C65.8867 22.3449 64.8941 21.022 64.1998 20.0933C66.549 18.8626 69.0022 17.7348 71.4653 16.8175C79.6947 13.7531 85.5396 13.9141 88.8503 16.4347C92.9266 19.5382 94.0849 25.1651 90.6651 34.1377C89.1322 38.1597 86.8524 42.2392 84.2123 45.9916Z" fill="black"/>
</svg>
